<?xml version="1.0" encoding="UTF-8"?>
<!-- Created with Inkscape (http://www.inkscape.org/) -->
<svg width="1920" height="1080" version="1.1" viewBox="0 0 508 285.75" xmlns="http://www.w3.org/2000/svg">
 <g transform="translate(5.5562 .8252)">
  <path d="m274.93 198.1-53.091-0.5746-5.3745 21.688h62.685z" fill="#00233f"/>
  <path d="m216.47 219.21-5.1815 20.903 72.203 0.7863-4.3376-21.69z" fill="#c7d5dd"/>
  <path d="m306.42 251.85-117.67-1.2788 0.11809-10.697 117.66 1.2802z" fill="#e7eef2"/>
  <path d="m365.15 200.5c-0.059 5.5372-4.9453 9.9756-10.907 9.9108l-213.02-2.3171c-5.9649-0.0648-10.746-4.6084-10.687-10.144l1.3163-121.01c0.0619-5.5358 4.941-9.9728 10.906-9.908l213.02 2.3157c5.9635 0.06624 10.746 4.6069 10.687 10.144z" fill="#00233f"/>
  <path d="m365.04 210.53-234.62-2.5519 0.2477-22.899 234.62 2.5533z" fill="#e7eef2"/>
  <path d="m356.03 178.17-215.89-2.3474 1.0239-94.264 215.9 2.3474z" fill="#1feadb"/>
  <path d="m309.89 176.77h-137.62c-3.1697 0-5.4753-3.007-4.6472-6.0658l31.26-85.702c0.5674-2.0954 2.4684-3.5513 4.6415-3.5513h137.63c3.1697 0 4.6429 3.0242 4.6429 6.0643l-31.26 85.7c-0.56309 2.0954-2.464 3.5556-4.6415 3.5556" fill="#f9be18"/>
  <path d="m198.87 85.003c0.5674-2.0997 2.4684-3.5528 4.6415-3.5528h126.9v-27.676h-135.29l-18.449 18.452v73.652z" fill="#f9f9f9"/>
  <path d="m176.67 72.226 18.449-18.452h49.196l-15.375-21.522h-56.169c-2.9407 0-5.3255 2.3819-5.3255 5.327v131.38c0.21169 4e-3 0.42339 0.0202 0.62933 0.0288l8.5946-23.432z" fill="#f9be18"/>
  <g fill="#916f6f">
   <path d="m253.54 69.148h6.1536v12.301h-6.1536z"/>
   <path d="m275.07 69.148h6.1464v12.301h-6.1464z"/>
   <path d="m296.59 69.148h6.1507v12.301h-6.1507z"/>
   <path d="m210.49 69.148h6.1551v12.301h-6.1551z"/>
   <path d="m232.02 69.148h6.1449v12.301h-6.1449z"/>
   <path d="m195.12 72.226v-18.452l-18.449 18.452z"/>
  </g>
 </g>
</svg>
