<?xml version="1.0" encoding="UTF-8"?>
<!-- Created with Inkscape (http://www.inkscape.org/) -->
<svg width="1920" height="1080" version="1.1" viewBox="0 0 508 285.75" xmlns="http://www.w3.org/2000/svg">
 <g transform="matrix(1.2904 0 0 -1.2904 -219.85 292.75)">
  <g transform="translate(431.9 134.56)">
   <path d="m0 0c0-3.289-2.784-4.048-6.073-4.048h-121.7c-3.29 0-6.074 0.506-6.074 4.048v67.049c0 3.289 2.784 6.072 6.074 6.072h121.45c3.289 0 6.072-2.783 6.072-6.072v-67.049z" fill="#e7eef2"/>
  </g>
  <g transform="translate(431.9 52.077)">
   <path d="m0 0c0-3.289-2.784-4.048-6.073-4.048h-121.7c-3.29 0-6.074 0.506-6.074 4.048v67.049c0 3.289 2.784 6.072 6.074 6.072h121.45c3.289 0 6.072-2.783 6.072-6.072v-67.049z" fill="#c7d5dd"/>
  </g>
  <g transform="translate(431.9 55.366)">
   <path d="m0 0c0-3.289-2.784-4.048-6.073-4.048h-121.7c-3.29 0-6.074 0.506-6.074 4.048v67.049c0 3.289 2.784 6.072 6.074 6.072h121.45c3.289 0 6.072-2.783 6.072-6.072v-67.049z" fill="#eff6f9"/>
  </g>
  <g transform="translate(431.9 132.79)">
   <path d="m0 0c0-3.289-2.784-4.048-6.073-4.048h-121.7c-3.29 0-6.074 0.506-6.074 4.048v67.049c0 3.289 2.784 6.072 6.074 6.072h121.45c3.289 0 6.072-2.783 6.072-6.072v-67.049z" fill="#00233f"/>
  </g>
  <g transform="translate(304.13 128.49)">
   <path d="m0 0h121.45c3.289 0 6.073-2.783 6.073-6.072v-67.049c0-3.289-2.784-4.048-6.073-4.048h-121.45" fill="#e7eef2"/>
   <path d="m0 0h121.45c3.289 0 6.073-2.783 6.073-6.072v-67.049c0-3.289-2.784-4.048-6.073-4.048" fill="#d8e3ea"/>
  </g>
  <g transform="translate(424.06 76.367)">
   <path d="m0 0c0-3.036-0.253-3.542-3.289-3.542h-112.09c-3.036 0-3.289 0.506-3.289 3.542v41.494c0 3.036 0.253 3.542 3.289 3.542h112.09c3.036 0 3.289-0.506 3.289-3.542z" fill="#b8cad1"/>
  </g>
  <g transform="translate(424.06 76.113)">
   <path d="m0 0c0-2.783-0.253-3.289-3.289-3.289h-112.09c-3.036 0-3.289 0.506-3.289 3.289v40.229c0 2.784 0.253 3.29 3.289 3.29h112.09c3.036 0 3.289-0.506 3.289-3.29z" fill="#c7d5dd"/>
  </g>
  <g transform="translate(316.78 114.82)">
   <path d="m0 0c0-0.253-0.253-0.253-0.253-0.253h-6.072c-0.253 0-0.253 0.253-0.253 0.253v2.783c0 0.253 0.253 0.253 0.253 0.253h6.072c0.253 0 0.253-0.253 0.253-0.253z" fill="#00233f"/>
  </g>
  <g transform="translate(324.62 114.82)">
   <path d="m0 0c0-0.253-0.253-0.253-0.253-0.253h-6.072c-0.254 0-0.254 0.253-0.254 0.253v2.783c0 0.253 0.254 0.253 0.254 0.253h6.072c0.253 0 0.253-0.253 0.253-0.253z" fill="#00233f"/>
  </g>
  <g transform="translate(332.47 114.82)">
   <path d="m0 0c0-0.253 0-0.253-0.253-0.253h-6.072c-0.253 0-0.253 0.253-0.253 0.253v2.783c0 0.253 0.253 0.253 0.253 0.253h6.072c0.253 0 0.253-0.253 0.253-0.253z" fill="#00233f"/>
  </g>
  <g transform="translate(340.56 114.82)">
   <path d="m0 0c0-0.253-0.253-0.253-0.253-0.253h-6.072c-0.253 0-0.253 0.253-0.253 0.253v2.783c0 0.253 0.253 0.253 0.253 0.253h6.072c0.253 0 0.253-0.253 0.253-0.253z" fill="#00233f"/>
  </g>
  <g transform="translate(348.41 114.82)">
   <path d="m0 0c0-0.253-0.253-0.253-0.253-0.253h-6.072c-0.253 0-0.253 0.253-0.253 0.253v2.783c0 0.253 0.253 0.253 0.253 0.253h6.072c0.253 0 0.253-0.253 0.253-0.253z" fill="#00233f"/>
  </g>
  <g transform="translate(356.25 114.82)">
   <path d="m0 0c0-0.253-0.253-0.253-0.253-0.253h-6.072c-0.253 0-0.253 0.253-0.253 0.253v2.783c0 0.253 0.253 0.253 0.253 0.253h6.072c0.253 0 0.253-0.253 0.253-0.253z" fill="#00233f"/>
  </g>
  <g transform="translate(364.35 114.82)">
   <path d="m0 0c0-0.253-0.253-0.253-0.253-0.253h-6.072c-0.253 0-0.253 0.253-0.253 0.253v2.783c0 0.253 0.253 0.253 0.253 0.253h6.072c0.253 0 0.253-0.253 0.253-0.253z" fill="#00233f"/>
  </g>
  <g transform="translate(372.19 114.82)">
   <path d="m0 0c0-0.253-0.253-0.253-0.253-0.253h-6.072c-0.253 0-0.253 0.253-0.253 0.253v2.783c0 0.253 0.253 0.253 0.253 0.253h6.072c0.253 0 0.253-0.253 0.253-0.253z" fill="#00233f"/>
  </g>
  <g transform="translate(380.03 114.82)">
   <path d="m0 0c0-0.253-0.253-0.253-0.253-0.253h-6.073c-0.253 0-0.253 0.253-0.253 0.253v2.783c0 0.253 0.253 0.253 0.253 0.253h6.073c0.253 0 0.253-0.253 0.253-0.253z" fill="#00233f"/>
  </g>
  <g transform="translate(388.13 114.82)">
   <path d="m0 0c0-0.253-0.253-0.253-0.253-0.253h-6.072c-0.253 0-0.253 0.253-0.253 0.253v2.783c0 0.253 0.253 0.253 0.253 0.253h5.819c0.253 0 0.253-0.253 0.253-0.253v-2.783z" fill="#00233f"/>
  </g>
  <g transform="translate(395.97 114.82)">
   <path d="m0 0c0-0.253-0.253-0.253-0.253-0.253h-6.072c-0.253 0-0.253 0.253-0.253 0.253v2.783c0 0.253 0.253 0.253 0.253 0.253h6.072c0.253 0 0.253-0.253 0.253-0.253z" fill="#00233f"/>
  </g>
  <g transform="translate(403.82 114.82)">
   <path d="m0 0c0-0.253-0.253-0.253-0.253-0.253h-6.072c-0.254 0-0.254 0.253-0.254 0.253v2.783c0 0.253 0.254 0.253 0.254 0.253h6.072c0.253 0 0.253-0.253 0.253-0.253z" fill="#00233f"/>
  </g>
  <g transform="translate(411.91 114.82)">
   <path d="m0 0c0-0.253-0.254-0.253-0.254-0.253h-6.325c-0.253 0-0.253 0.253-0.253 0.253v2.783c0 0.253 0.253 0.253 0.253 0.253h6.072c0.253 0 0.253-0.253 0.253-0.253v-2.783z" fill="#00233f"/>
  </g>
  <g transform="translate(420.01 114.82)">
   <path d="m0 0c0-0.253-0.253-0.253-0.253-0.253h-6.072c-0.253 0-0.253 0.253-0.253 0.253v2.783c0 0.253 0.253 0.253 0.253 0.253h6.072c0.253 0 0.253-0.253 0.253-0.253z" fill="#00233f"/>
  </g>
  <g transform="translate(316.02 107.49)">
   <path d="m0 0c0-0.253-0.253-0.759-0.759-0.759h-4.807c-0.253 0-0.759 0.253-0.759 0.759v4.807c0 0.253 0.253 0.759 0.759 0.759h4.807c0.253 0 0.759-0.253 0.759-0.759z" fill="#00233f"/>
  </g>
  <g transform="translate(323.61 107.49)">
   <path d="m0 0c0-0.253-0.253-0.759-0.759-0.759h-4.807c-0.253 0-0.506 0.253-0.506 0.759v4.807c0 0.253 0.253 0.759 0.506 0.759h4.807c0.253 0 0.759-0.253 0.759-0.759z" fill="#00233f"/>
  </g>
  <g transform="translate(331.2 107.49)">
   <path d="m0 0c0-0.253-0.253-0.759-0.759-0.759h-4.807c-0.253 0-0.759 0.253-0.759 0.759v4.807c0 0.253 0.253 0.759 0.759 0.759h4.807c0.253 0 0.759-0.253 0.759-0.759z" fill="#00233f"/>
  </g>
  <g transform="translate(339.04 107.49)">
   <path d="m0 0c0-0.253-0.253-0.759-0.759-0.759h-4.807c-0.253 0-0.759 0.253-0.759 0.759v4.807c0 0.253 0.253 0.759 0.759 0.759h4.807c0.253 0 0.759-0.253 0.759-0.759z" fill="#00233f"/>
  </g>
  <g transform="translate(346.63 107.49)">
   <path d="m0 0c0-0.253-0.253-0.759-0.506-0.759h-4.807c-0.253 0-0.759 0.253-0.759 0.759v4.807c0 0.253 0.253 0.759 0.759 0.759h4.807c0.253 0 0.506-0.253 0.506-0.759z" fill="#00233f"/>
  </g>
  <g transform="translate(354.48 107.49)">
   <path d="m0 0c0-0.253-0.253-0.759-0.759-0.759h-4.807c-0.253 0-0.759 0.253-0.759 0.759v4.807c0 0.253 0.253 0.759 0.759 0.759h4.807c0.253 0 0.759-0.253 0.759-0.759z" fill="#00233f"/>
  </g>
  <g transform="translate(362.07 107.49)">
   <path d="m0 0c0-0.253-0.254-0.759-0.76-0.759h-4.806c-0.254 0-0.76 0.253-0.76 0.759v4.807c0 0.253 0.253 0.759 0.76 0.759h4.806c0.253 0 0.76-0.253 0.76-0.759z" fill="#00233f"/>
  </g>
  <g transform="translate(369.91 107.49)">
   <path d="m0 0c0-0.253-0.253-0.759-0.759-0.759h-4.807c-0.253 0-0.759 0.253-0.759 0.759v4.807c0 0.253 0.253 0.759 0.759 0.759h4.807c0.253 0 0.759-0.253 0.759-0.759z" fill="#00233f"/>
  </g>
  <g transform="translate(377.5 107.49)">
   <path d="m0 0c0-0.253-0.253-0.759-0.759-0.759h-4.807c-0.253 0-0.759 0.253-0.759 0.759v4.807c0 0.253 0.253 0.759 0.759 0.759h4.807c0.253 0 0.759-0.253 0.759-0.759z" fill="#00233f"/>
  </g>
  <g transform="translate(385.35 107.49)">
   <path d="m0 0c0-0.253-0.254-0.759-0.507-0.759h-4.806c-0.253 0-0.76 0.253-0.76 0.759v4.807c0 0.253 0.253 0.759 0.76 0.759h4.806c0.253 0 0.507-0.253 0.507-0.759z" fill="#00233f"/>
  </g>
  <g transform="translate(392.94 107.49)">
   <path d="m0 0c0-0.253-0.253-0.759-0.759-0.759h-4.554c-0.253 0-0.759 0.253-0.759 0.759v4.807c0 0.253 0.253 0.759 0.759 0.759h4.807c0.253 0 0.759-0.253 0.759-0.759v-4.807z" fill="#00233f"/>
  </g>
  <g transform="translate(400.78 107.49)">
   <path d="m0 0c0-0.253-0.253-0.759-0.506-0.759h-5.06c-0.253 0-0.759 0.253-0.759 0.759v4.807c0 0.253 0.253 0.759 0.759 0.759h4.807c0.253 0 0.506-0.253 0.506-0.759v-4.807z" fill="#00233f"/>
  </g>
  <g transform="translate(408.37 107.49)">
   <path d="m0 0c0-0.253-0.253-0.759-0.759-0.759h-4.807c-0.253 0-0.759 0.253-0.759 0.759v4.807c0 0.253 0.253 0.759 0.759 0.759h5.06c0.253 0 0.76-0.253 0.76-0.759v-4.807z" fill="#00233f"/>
  </g>
  <g transform="translate(419 112.8)">
   <path d="m0 0h-8.603c-0.252 0-0.505-0.253-0.505-0.759v-4.807c0-0.254 0.253-0.76 0.505-0.76h8.603c0.253 0 0.759 0.253 0.759 0.76v4.807c0 0.506-0.253 0.759-0.759 0.759" fill="#00233f"/>
  </g>
  <g transform="translate(413.68 104.45)">
   <path d="m0 0c0 0.253 0.253 0.759 0.759 0.759h4.807c0.253 0 0.506-0.253 0.506-0.759v-4.808c0-0.253-0.253-0.758-0.506-0.758h-4.807c-0.253 0-0.759 0.253-0.759 0.758z" fill="#00233f"/>
  </g>
  <g transform="translate(406.09 104.45)">
   <path d="m0 0c0 0.253 0.254 0.759 0.76 0.759h4.806c0.254 0 0.76-0.253 0.76-0.759v-4.808c0-0.253-0.253-0.758-0.76-0.758h-4.806c-0.253 0-0.76 0.253-0.76 0.758z" fill="#00233f"/>
  </g>
  <g transform="translate(398.25 104.45)">
   <path d="m0 0c0 0.253 0.253 0.759 0.506 0.759h4.807c0.253 0 0.759-0.253 0.759-0.759v-4.808c0-0.253-0.253-0.758-0.759-0.758h-4.807c-0.253 0-0.506 0.253-0.506 0.758z" fill="#00233f"/>
  </g>
  <g transform="translate(390.66 104.45)">
   <path d="m0 0c0 0.253 0.253 0.759 0.76 0.759h4.806c0.253 0 0.506-0.253 0.506-0.759v-4.808c0-0.253-0.253-0.758-0.506-0.758h-4.806c-0.253 0-0.76 0.253-0.76 0.758z" fill="#00233f"/>
  </g>
  <g transform="translate(382.82 104.45)">
   <path d="m0 0c0 0.253 0.254 0.759 0.76 0.759h4.806c0.254 0 0.76-0.253 0.76-0.759v-4.808c0-0.253-0.253-0.758-0.76-0.758h-4.806c-0.253 0-0.76 0.253-0.76 0.758z" fill="#00233f"/>
  </g>
  <g transform="translate(375.23 104.45)">
   <path d="m0 0c0 0.253 0.253 0.759 0.759 0.759h4.807c0.253 0 0.506-0.253 0.506-0.759v-4.808c0-0.253-0.253-0.758-0.506-0.758h-4.807c-0.253 0-0.759 0.253-0.759 0.758z" fill="#00233f"/>
  </g>
  <g transform="translate(367.38 104.45)">
   <path d="m0 0c0 0.253 0.253 0.759 0.506 0.759h4.807c0.253 0 0.759-0.253 0.759-0.759v-4.808c0-0.253-0.253-0.758-0.759-0.758h-4.807c-0.253 0-0.506 0.253-0.506 0.758z" fill="#00233f"/>
  </g>
  <g transform="translate(359.79 104.45)">
   <path d="m0 0c0 0.253 0.253 0.759 0.759 0.759h4.807c0.253 0 0.759-0.253 0.759-0.759v-4.808c0-0.253-0.253-0.758-0.759-0.758h-4.807c-0.253 0-0.759 0.253-0.759 0.758z" fill="#00233f"/>
  </g>
  <g transform="translate(351.95 104.45)">
   <path d="m0 0c0 0.253 0.253 0.759 0.759 0.759h4.807c0.253 0 0.759-0.253 0.759-0.759v-4.808c0-0.253-0.253-0.758-0.759-0.758h-4.807c-0.253 0-0.759 0.253-0.759 0.758z" fill="#00233f"/>
  </g>
  <g transform="translate(344.36 104.45)">
   <path d="m0 0c0 0.253 0.253 0.759 0.759 0.759h4.806c0.253 0 0.76-0.253 0.76-0.759v-4.808c0-0.253-0.253-0.758-0.76-0.758h-4.806c-0.253 0-0.759 0.253-0.759 0.758z" fill="#00233f"/>
  </g>
  <g transform="translate(336.51 104.45)">
   <path d="m0 0c0 0.253 0.253 0.759 0.759 0.759h4.807c0.253 0 0.759-0.253 0.759-0.759v-4.808c0-0.253-0.253-0.758-0.759-0.758h-4.807c-0.253 0-0.759 0.253-0.759 0.758z" fill="#00233f"/>
  </g>
  <g transform="translate(328.92 104.45)">
   <path d="m0 0c0 0.253 0.253 0.759 0.76 0.759h4.806c0.253 0 0.759-0.253 0.759-0.759v-4.808c0-0.253-0.253-0.758-0.759-0.758h-5.059c-0.254 0-0.76 0.253-0.76 0.758v4.808z" fill="#00233f"/>
  </g>
  <g transform="translate(321.08 104.45)">
   <path d="m0 0c0 0.253 0.253 0.759 0.76 0.759h4.806c0.253 0 0.507-0.253 0.507-0.759v-4.808c0-0.253-0.254-0.758-0.507-0.758h-4.806c-0.253 0-0.76 0.253-0.76 0.758z" fill="#00233f"/>
  </g>
  <g transform="translate(310.45 98.885)">
   <path d="m0 0h8.603c0.252 0 0.758 0.253 0.758 0.759v4.807c0 0.253-0.253 0.759-0.758 0.759h-8.603c-0.253 0-0.759-0.253-0.759-0.759v-4.807c0.253-0.253 0.506-0.759 0.759-0.759" fill="#00233f"/>
  </g>
  <g transform="translate(400.53 96.861)">
   <path d="m0 0c0 0.253 0.253 0.506 0.506 0.506h4.806c0.253 0 0.76-0.253 0.76-0.506v-4.808c0-0.253-0.253-0.758-0.76-0.758h-4.806c-0.253 0-0.506 0.253-0.506 0.758z" fill="#00233f"/>
  </g>
  <g transform="translate(392.68 96.861)">
   <path d="m0 0c0 0.253 0.253 0.506 0.759 0.506h4.807c0.253 0 0.759-0.253 0.759-0.506v-4.808c0-0.253-0.253-0.758-0.759-0.758h-4.807c-0.253 0-0.759 0.253-0.759 0.758z" fill="#00233f"/>
  </g>
  <g transform="translate(385.09 96.861)">
   <path d="m0 0c0 0.253 0.254 0.506 0.76 0.506h4.806c0.253 0 0.76-0.253 0.76-0.506v-4.808c0-0.253-0.253-0.758-0.76-0.758h-4.806c-0.253 0-0.76 0.253-0.76 0.758z" fill="#00233f"/>
  </g>
  <g transform="translate(377.25 96.861)">
   <path d="m0 0c0 0.253 0.253 0.506 0.759 0.506h4.806c0.254 0 0.76-0.253 0.76-0.506v-4.808c0-0.253-0.253-0.758-0.76-0.758h-4.806c-0.253 0-0.759 0.253-0.759 0.758z" fill="#00233f"/>
  </g>
  <g transform="translate(369.66 96.861)">
   <path d="m0 0c0 0.253 0.253 0.506 0.759 0.506h4.554c0.253 0 0.506-0.253 0.506-0.506v-4.808c0-0.253-0.253-0.758-0.506-0.758h-4.807c-0.253 0-0.759 0.253-0.759 0.758v4.808z" fill="#00233f"/>
  </g>
  <g transform="translate(361.82 96.861)">
   <path d="m0 0c0 0.253 0.254 0.506 0.507 0.506h5.059c0.253 0 0.759-0.253 0.759-0.506v-4.808c0-0.253-0.253-0.758-0.759-0.758h-4.806c-0.253 0-0.506 0.253-0.506 0.758v4.808z" fill="#00233f"/>
  </g>
  <g transform="translate(354.23 96.861)">
   <path d="m0 0c0 0.253 0.253 0.506 0.759 0.506h4.807c0.253 0 0.506-0.253 0.506-0.506v-4.808c0-0.253-0.253-0.758-0.506-0.758h-5.06c-0.253 0-0.759 0.253-0.759 0.758v4.808z" fill="#00233f"/>
  </g>
  <g transform="translate(346.38 96.861)">
   <path d="m0 0c0 0.253 0.253 0.506 0.506 0.506h4.807c0.253 0 0.759-0.253 0.759-0.506v-4.808c0-0.253-0.253-0.758-0.759-0.758h-4.554c-0.253 0-0.506 0.253-0.506 0.758v4.808z" fill="#00233f"/>
  </g>
  <g transform="translate(338.79 96.861)">
   <path d="m0 0c0 0.253 0.253 0.506 0.759 0.506h4.807c0.253 0 0.506-0.253 0.506-0.506v-4.808c0-0.253-0.253-0.758-0.506-0.758h-4.807c-0.253 0-0.759 0.253-0.759 0.758z" fill="#00233f"/>
  </g>
  <g transform="translate(330.95 96.861)">
   <path d="m0 0c0 0.253 0.253 0.506 0.759 0.506h4.807c0.253 0 0.759-0.253 0.759-0.506v-4.808c0-0.253-0.253-0.758-0.759-0.758h-4.807c-0.253 0-0.759 0.253-0.759 0.758z" fill="#00233f"/>
  </g>
  <g transform="translate(323.36 96.861)">
   <path d="m0 0c0 0.253 0.253 0.506 0.76 0.506h4.806c0.253 0 0.76-0.253 0.76-0.506v-4.808c0-0.253-0.253-0.758-0.76-0.758h-4.806c-0.253 0-0.76 0.253-0.76 0.758z" fill="#00233f"/>
  </g>
  <g transform="translate(408.62 91.294)">
   <path d="m0 0h10.373c0.506 0 0.759 0.253 0.759 0.759v4.807c0 0.253-0.253 0.506-0.759 0.506h-10.373c-0.507 0-0.76-0.253-0.76-0.506v-4.807c0-0.506 0.506-0.759 0.76-0.759" fill="#00233f"/>
  </g>
  <g transform="translate(310.71 91.294)">
   <path d="m0 0h10.373c0.507 0 0.76 0.253 0.76 0.759v4.807c0 0.253-0.253 0.506-0.76 0.506h-10.373c-0.506 0-0.759-0.253-0.759-0.506v-4.807c0-0.506 0.253-0.759 0.759-0.759" fill="#00233f"/>
  </g>
  <g transform="translate(396.48 89.017)">
   <path d="m0 0c0 0.253 0.253 0.759 0.506 0.759h4.807c0.253 0 0.759-0.253 0.759-0.759v-4.807c0-0.253-0.253-0.759-0.759-0.759h-4.807c-0.253 0-0.506 0.253-0.506 0.759z" fill="#00233f"/>
  </g>
  <g transform="translate(388.89 89.017)">
   <path d="m0 0c0 0.253 0.253 0.759 0.759 0.759h4.807c0.253 0 0.759-0.253 0.759-0.759v-4.807c0-0.253-0.253-0.759-0.759-0.759h-4.807c-0.253 0-0.759 0.253-0.759 0.759z" fill="#00233f"/>
  </g>
  <g transform="translate(381.04 89.017)">
   <path d="m0 0c0 0.253 0.253 0.759 0.759 0.759h4.807c0.253 0 0.759-0.253 0.759-0.759v-4.807c0-0.253-0.253-0.759-0.759-0.759h-4.807c-0.253 0-0.759 0.253-0.759 0.759z" fill="#00233f"/>
  </g>
  <g transform="translate(373.45 89.017)">
   <path d="m0 0c0 0.253 0.253 0.759 0.76 0.759h4.806c0.253 0 0.76-0.253 0.76-0.759v-4.807c0-0.253-0.254-0.759-0.76-0.759h-4.806c-0.254 0-0.76 0.253-0.76 0.759z" fill="#00233f"/>
  </g>
  <g transform="translate(365.61 89.017)">
   <path d="m0 0c0 0.253 0.253 0.759 0.759 0.759h4.807c0.253 0 0.759-0.253 0.759-0.759v-4.807c0-0.253-0.253-0.759-0.759-0.759h-4.807c-0.253 0-0.759 0.253-0.759 0.759z" fill="#00233f"/>
  </g>
  <g transform="translate(358.02 89.017)">
   <path d="m0 0c0 0.253 0.253 0.759 0.759 0.759h4.807c0.253 0 0.759-0.253 0.759-0.759v-4.807c0-0.253-0.253-0.759-0.759-0.759h-4.807c-0.253 0-0.759 0.253-0.759 0.759z" fill="#00233f"/>
  </g>
  <g transform="translate(350.18 89.017)">
   <path d="m0 0c0 0.253 0.254 0.759 0.76 0.759h4.806c0.253 0 0.76-0.253 0.76-0.759v-4.807c0-0.253-0.254-0.759-0.76-0.759h-4.806c-0.253 0-0.76 0.253-0.76 0.759z" fill="#00233f"/>
  </g>
  <g transform="translate(342.59 89.017)">
   <path d="m0 0c0 0.253 0.253 0.759 0.759 0.759h4.807c0.253 0 0.759-0.253 0.759-0.759v-4.807c0-0.253-0.253-0.759-0.759-0.759h-4.807c-0.253 0-0.759 0.253-0.759 0.759z" fill="#00233f"/>
  </g>
  <g transform="translate(334.74 89.017)">
   <path d="m0 0c0 0.253 0.253 0.759 0.759 0.759h4.807c0.253 0 0.759-0.253 0.759-0.759v-4.807c0-0.253-0.253-0.759-0.759-0.759h-4.807c-0.253 0-0.759 0.253-0.759 0.759z" fill="#00233f"/>
  </g>
  <g transform="translate(327.15 89.017)">
   <path d="m0 0c0 0.253 0.253 0.759 0.759 0.759h4.807c0.253 0 0.759-0.253 0.759-0.759v-4.807c0-0.253-0.253-0.759-0.759-0.759h-4.807c-0.253 0-0.759 0.253-0.759 0.759z" fill="#00233f"/>
  </g>
  <g transform="translate(310.71 83.451)">
   <path d="m0 0h14.422c0.506 0 0.759 0.253 0.759 0.759v4.807c0 0.253-0.253 0.76-0.759 0.76h-14.422c-0.506 0-0.759-0.253-0.759-0.76v-4.807c0-0.506 0.253-0.759 0.759-0.759" fill="#00233f"/>
  </g>
  <g transform="translate(404.58 83.451)">
   <path d="m0 0h14.422c0.506 0 0.759 0.253 0.759 0.759v4.807c0 0.253-0.253 0.76-0.759 0.76h-14.422c-0.506 0-0.759-0.253-0.759-0.76v-4.807c0-0.506 0.506-0.759 0.759-0.759" fill="#00233f"/>
  </g>
  <g transform="translate(381.3 81.174)">
   <path d="m0 0c0 0.253 0.253 0.759 0.759 0.759h6.072c0.253 0 0.76-0.253 0.76-0.759v-4.807c0-0.254-0.253-0.759-0.76-0.759h-6.072c-0.253 0-0.759 0.253-0.759 0.759z" fill="#00233f"/>
  </g>
  <g transform="translate(332.97 81.174)">
   <path d="m0 0c0 0.253 0.253 0.759 0.759 0.759h6.072c0.253 0 0.506-0.253 0.506-0.759v-4.807c0-0.254-0.253-0.759-0.506-0.759h-6.072c-0.253 0-0.759 0.253-0.759 0.759z" fill="#00233f"/>
  </g>
  <g transform="translate(325.13 81.174)">
   <path d="m0 0c0 0.253 0.253 0.759 0.759 0.759h4.807c0.253 0 0.759-0.253 0.759-0.759v-4.807c0-0.254-0.253-0.759-0.759-0.759h-4.807c-0.253 0-0.759 0.253-0.759 0.759z" fill="#00233f"/>
  </g>
  <g transform="translate(390.41 81.174)">
   <path d="m0 0c0 0.253 0.253 0.759 0.759 0.759h4.807c0.253 0 0.759-0.253 0.759-0.759v-4.807c0-0.254-0.253-0.759-0.759-0.759h-4.807c-0.253 0-0.759 0.253-0.759 0.759z" fill="#00233f"/>
  </g>
  <g transform="translate(317.29 81.174)">
   <path d="m0 0c0 0.253 0.253 0.759 0.506 0.759h4.807c0.253 0 0.506-0.253 0.506-0.759v-4.807c0-0.254-0.253-0.759-0.506-0.759h-4.807c-0.253 0-0.506 0.253-0.506 0.759z" fill="#00233f"/>
  </g>
  <g transform="translate(309.7 81.174)">
   <path d="m0 0c0 0.253 0.253 0.759 0.506 0.759h4.807c0.253 0 0.759-0.253 0.759-0.759v-4.807c0-0.254-0.253-0.759-0.759-0.759h-4.807c-0.253 0-0.506 0.253-0.506 0.759z" fill="#00233f"/>
  </g>
  <g transform="translate(379.02 81.933)">
   <path d="m0 0h-35.422c-0.253 0-0.759-0.253-0.759-0.759v-4.807c0-0.254 0.253-0.76 0.759-0.76h35.422c0.253 0 0.506 0.253 0.506 0.76v4.807c0 0.506-0.253 0.759-0.506 0.759" fill="#00233f"/>
  </g>
  <g transform="translate(404.58 76.113)">
   <path d="m0 0c0-0.253-0.253-0.253-0.253-0.253h-6.072c-0.253 0-0.253 0.253-0.253 0.253v2.024c0 0.253 0.253 0.253 0.253 0.253h6.072c0.253 0 0.253-0.253 0.253-0.253z" fill="#00233f"/>
  </g>
  <g transform="translate(412.42 76.113)">
   <path d="m0 0c0-0.253 0-0.253-0.253-0.253h-6.073c-0.253 0-0.253 0.253-0.253 0.253v2.024c0 0.253 0.253 0.253 0.253 0.253h6.073c0.253 0 0.253-0.253 0.253-0.253z" fill="#00233f"/>
  </g>
  <g transform="translate(412.42 79.656)">
   <path d="m0 0c0-0.253 0-0.253-0.253-0.253h-6.073c-0.253 0-0.253 0.253-0.253 0.253v2.024c0 0.253 0.253 0.253 0.253 0.253h6.073c0.253 0 0.253-0.253 0.253-0.253z" fill="#00233f"/>
  </g>
  <g transform="translate(420.01 76.113)">
   <path d="m0 0c0-0.253 0-0.253-0.253-0.253h-6.072c-0.253 0-0.253 0.253-0.253 0.253v2.024c0 0.253 0.253 0.253 0.253 0.253h6.072c0.253 0 0.253-0.253 0.253-0.253z" fill="#00233f"/>
  </g>
  <g transform="translate(380.54 54.86)">
   <path d="m0 0c0-0.506-0.506-1.012-1.013-1.012h-29.349c-0.506 0-1.012 0.506-1.012 1.012v15.181c0 0.506 0.506 1.012 1.012 1.012h29.096c0.507 0 1.013-0.506 1.013-1.012v-15.181z" fill="#c7d5dd"/>
   <path d="m0 0c0-0.506-0.506-1.012-1.013-1.012h-29.349c-0.506 0-1.012 0.506-1.012 1.012v13.916c0 0.506 0.506 1.012 1.012 1.012h29.096c0.507 0 1.013-0.506 1.013-1.012v-13.916z" fill="#d8e3ea"/>
  </g>
  <g transform="translate(426.84 125.45)">
   <path d="m0 0c1.117 0 2.023-0.906 2.023-2.024 0-1.119-0.906-2.025-2.023-2.025-1.118 0-2.024 0.906-2.024 2.025 0 1.118 0.906 2.024 2.024 2.024" fill="#e7eef2"/>
  </g>
  <g transform="translate(426.34 136.33)">
   <path d="m0 0v59.206c0 3.036 0 5.565-3.036 5.565h-116.89c-3.037 0.254-3.037-2.276-3.037-5.565v-59.459h122.97z" fill="#1feadb"/>
   <path d="m0 0v59.206c0 3.036 0 5.565-3.036 5.565h-116.89c-3.037 0.254-3.037-2.276-3.037-5.565" fill="#15cccc"/>
  </g>
  <g transform="translate(414.95 124.69)">
   <path d="m0 0c0-0.506-0.507-0.759-1.266-0.759h-97.663c-0.759 0-1.265 0.253-1.265 0.759v4.048c0 0.506 0.506 0.759 1.265 0.759h97.663c0.759 0 1.266-0.253 1.266-0.759z" fill="#08446d"/>
  </g>
  <g transform="translate(314.75 128.99)">
   <path d="m0 0c0 0.506 0.507 0.759 1.266 0.759h97.663c0.759 0 1.265-0.253 1.265-0.759v-4.048c0-0.506-0.506-0.76-1.265-0.76" fill="#00233f"/>
  </g>
  <g transform="translate(364.85 131.52)">
   <path d="m0 0 1.519-1.518 1.011 1.012-2.53 2.53-2.529-2.53 1.011-1.012z" fill="#d8e3ea"/>
  </g>
  <g transform="translate(422.04 57.646)">
   <path d="m0 0c-0.753 0-1.457-0.202-2.064-0.554v1.008c0 2.281-1.848 4.129-4.128 4.129-0.752-1e-3 -1.457-0.202-2.065-0.554v1.806c0 2.281-1.848 4.129-4.129 4.129-1.304 0-2.468-0.607-3.224-1.552v-4.65h-7.096v-35.262h23.257v10.734c2.018 0.269 3.578 1.996 3.577 4.09l1e-3 12.548c-1e-3 2.279-1.85 4.128-4.129 4.128" fill="#ffd6a0"/>
  </g>
  <g transform="translate(407.39 49.213)">
   <path d="m0 0c0-2.223-1.803-4.025-4.026-4.025s-4.025 1.802-4.025 4.025v26.165c0 2.223 1.802 4.024 4.025 4.024s4.026-1.801 4.026-4.024z" fill="#ffd6a0"/>
  </g>
  <g transform="translate(403.3 39.194)">
   <path d="m0 0c0.678-2.117-0.492-4.382-2.609-5.059-2.119-0.677-4.383 0.491-5.059 2.608l-5.878 18.288c-0.676 2.117 0.492 4.383 2.609 5.059 2.119 0.677 4.383-0.491 5.061-2.609z" fill="#ffd6a0"/>
  </g>
  <g transform="translate(392.61 46.141)">
   <path d="m0 0 3.021-9.398c0.533-1.667 2.052-2.746 3.708-2.798v-7.8l23.257 3.716z" fill="#ffc170"/>
  </g>
  <path d="m410.94 29.861h13.418v-7.156h-13.418z" fill="#ff5539"/>
  <path d="m397.53 29.861h13.418v-7.156h-13.418z" fill="#ff8a3b"/>
  <g transform="translate(309.18 85.383)">
   <path d="m0 0c0.753 0 1.457-0.202 2.064-0.554v1.008c0 2.281 1.848 4.129 4.128 4.129 0.752-1e-3 1.457-0.202 2.065-0.554v1.806c0 2.281 1.848 4.129 4.129 4.129 1.304 0 2.468-0.607 3.224-1.552v-4.65h7.096v-35.262h-23.257v10.734c-2.018 0.269-3.578 1.996-3.577 4.09l-1e-3 12.548c1e-3 2.279 1.85 4.128 4.129 4.128" fill="#ffd6a0"/>
  </g>
  <g transform="translate(323.84 76.95)">
   <path d="m0 0c0-2.223 1.803-4.025 4.026-4.025s4.025 1.802 4.025 4.025v26.165c0 2.223-1.802 4.024-4.025 4.024s-4.026-1.801-4.026-4.024z" fill="#ffd6a0"/>
  </g>
  <g transform="translate(316.25 78.874)">
   <path d="m0 0c0-2.223 1.803-4.025 4.026-4.025s4.025 1.802 4.025 4.025v26.165c0 2.223-1.802 4.024-4.025 4.024s-4.026-1.801-4.026-4.024z" fill="#ffd6a0"/>
  </g>
  <g transform="translate(309.54 74.937)">
   <path d="m0 0c0-2.223 1.803-4.025 4.026-4.025s4.025 1.802 4.025 4.025v26.165c0 2.223-1.802 4.024-4.025 4.024s-4.026-1.801-4.026-4.024z" fill="#ffd6a0"/>
  </g>
  <g transform="translate(305.05 67.906)">
   <path d="m0 0c0-2.223 1.803-4.025 4.026-4.025s4.025 1.802 4.025 4.025v26.165c0 2.223-1.802 4.024-4.025 4.024s-4.026-1.801-4.026-4.024z" fill="#ffd6a0"/>
  </g>
  <g transform="translate(327.93 66.931)">
   <path d="m0 0c-0.678-2.117 0.492-4.382 2.609-5.059 2.119-0.677 4.383 0.491 5.059 2.608l5.878 18.288c0.676 2.117-0.492 4.383-2.609 5.059-2.119 0.677-4.383-0.491-5.061-2.609z" fill="#ffd6a0"/>
  </g>
  <g transform="translate(338.62 73.878)">
   <path d="m0 0-3.021-9.398c-0.533-1.667-2.052-2.746-3.708-2.798v-7.8l-23.257 3.716z" fill="#ffc170"/>
  </g>
  <path d="m320.28 57.598h-13.418v-7.156h13.418z" fill="#ff5539"/>
  <path d="m333.7 57.598h-13.418v-7.156h13.418z" fill="#ff8a3b"/>
  <g transform="translate(396.39)">
   <path d="m0 0h-2e-3" fill="#121923"/>
  </g>
  <g transform="translate(396.39 22.702)">
   <path d="m0 0h14.422v-22.702h14.422v22.705h-28.846v-22.705h2e-3z" fill="#121923"/>
  </g>
  <g>
   <path d="m396.39 0h14.422v22.702h-14.422z" fill="#233145"/>
   <path d="m334.7 50.442h-28.846v-50.442h28.846z" fill="#121923"/>
   <path d="m334.7 50.437h-14.422v-50.437h14.422z" fill="#233145"/>
  </g>
 </g>
</svg>
